<mxfile host="app.diagrams.net" modified="2023-04-16T17:03:59.595Z" agent="Mozilla/5.0 (Macintosh; Intel Mac OS X 10_15_7) AppleWebKit/537.36 (KHTML, like Gecko) Chrome/111.0.0.0 Safari/537.36" version="21.1.4" etag="8FLhaHb0W0pBrtGAQP7h" type="github">
  <diagram name="Page-1" id="VRshN21xofzHj_C2eg8P">
    <mxGraphModel>
      <root>
        <mxCell id="0" />
        <mxCell id="1" parent="0" />
      </root>
    </mxGraphModel>
  </diagram>
</mxfile>
